STARTFONT 2.1
FONT -Adobe-Courier-Medium-O-Normal--18-180-75-75-M-110-ISO8859-2
SIZE 18 75 75
FONTBOUNDINGBOX 13 19 0 -4
COMMENT $XConsortium: courO18.bdf,v 1.11 95/01/26 18:00:51 gildea Exp $
COMMENT 
COMMENT +
COMMENT  Copyright 1984-1989, 1994 Adobe Systems Incorporated.
COMMENT  Copyright 1988, 1994 Digital Equipment Corporation.
COMMENT
COMMENT  Adobe is a trademark of Adobe Systems Incorporated which may be
COMMENT  registered in certain jurisdictions.
COMMENT  Permission to use these trademarks is hereby granted only in
COMMENT  association with the images described in this file.
COMMENT
COMMENT  Permission to use, copy, modify, distribute and sell this software
COMMENT  and its documentation for any purpose and without fee is hereby
COMMENT  granted, provided that the above copyright notices appear in all
COMMENT  copies and that both those copyright notices and this permission
COMMENT  notice appear in supporting documentation, and that the names of
COMMENT  Adobe Systems and Digital Equipment Corporation not be used in
COMMENT  advertising or publicity pertaining to distribution of the software
COMMENT  without specific, written prior permission.  Adobe Systems and
COMMENT  Digital Equipment Corporation make no representations about the
COMMENT  suitability of this software for any purpose.  It is provided "as
COMMENT  is" without express or implied warranty.
COMMENT -
COMMENT  
COMMENT  Translation to ISO8859-2 by Cub Soft;  Petr.Kolar@vslib.cz
COMMENT  
STARTPROPERTIES 28
FOUNDRY "Adobe"
FAMILY_NAME "Courier"
WEIGHT_NAME "Medium"
SLANT "O"
SETWIDTH_NAME "Normal"
ADD_STYLE_NAME ""
PIXEL_SIZE 18
POINT_SIZE 180
RESOLUTION_X 75
RESOLUTION_Y 75
SPACING "M"
AVERAGE_WIDTH 110
CHARSET_REGISTRY "ISO8859"
CHARSET_ENCODING "2"
CAP_HEIGHT 11
X_HEIGHT 8
FONT_ASCENT 14
FONT_DESCENT 4
FACE_NAME "Courier Oblique"

STARTCHAR space
ENCODING 32
SWIDTH 600 0
DWIDTH 11 0
BBX 1 1 0 0
BITMAP
00
ENDCHAR
STARTCHAR exclam
ENCODING 33
SWIDTH 600 0
DWIDTH 11 0
BBX 4 12 5 0
BITMAP
10
30
30
20
60
60
40
40
00
00
c0
c0
ENDCHAR
STARTCHAR quotedbl
ENCODING 34
SWIDTH 600 0
DWIDTH 11 0
BBX 7 6 4 6
BITMAP
66
66
cc
cc
88
88
ENDCHAR
STARTCHAR numbersign
ENCODING 35
SWIDTH 600 0
DWIDTH 11 0
BBX 8 14 2 -2
BITMAP
09
09
12
12
7f
24
24
24
fe
48
48
90
90
90
ENDCHAR
STARTCHAR dollar
ENCODING 36
SWIDTH 600 0
DWIDTH 11 0
BBX 9 14 2 -1
BITMAP
0400
0400
1e80
2100
2100
2000
1800
0400
0200
4200
4200
bc00
1000
1000
ENDCHAR
STARTCHAR percent
ENCODING 37
SWIDTH 600 0
DWIDTH 11 0
BBX 8 12 2 0
BITMAP
1c
24
44
48
73
0c
30
c7
09
11
12
1c
ENDCHAR
STARTCHAR ampersand
ENCODING 38
SWIDTH 600 0
DWIDTH 11 0
BBX 7 10 2 0
BITMAP
3c
40
40
40
20
76
98
88
8c
76
ENDCHAR
STARTCHAR apostrophe
ENCODING 39
SWIDTH 600 0
DWIDTH 11 0
BBX 3 5 5 7
BITMAP
60
60
c0
c0
80
ENDCHAR
STARTCHAR parenleft
ENCODING 40
SWIDTH 600 0
DWIDTH 11 0
BBX 4 14 5 -2
BITMAP
10
20
20
40
40
80
80
80
80
80
80
80
40
40
ENDCHAR
STARTCHAR parenright
ENCODING 41
SWIDTH 600 0
DWIDTH 11 0
BBX 4 14 4 -2
BITMAP
20
20
10
10
10
10
10
10
10
20
20
40
40
80
ENDCHAR
STARTCHAR asterisk
ENCODING 42
SWIDTH 600 0
DWIDTH 11 0
BBX 6 7 4 5
BITMAP
10
10
94
78
30
50
88
ENDCHAR
STARTCHAR plus
ENCODING 43
SWIDTH 600 0
DWIDTH 11 0
BBX 9 9 2 1
BITMAP
0400
0400
0400
0800
ff80
0800
1000
1000
1000
ENDCHAR
STARTCHAR comma
ENCODING 44
SWIDTH 600 0
DWIDTH 11 0
BBX 4 5 3 -2
BITMAP
30
70
60
c0
80
ENDCHAR
STARTCHAR minus
ENCODING 45
SWIDTH 600 0
DWIDTH 11 0
BBX 9 1 2 5
BITMAP
ff80
ENDCHAR
STARTCHAR period
ENCODING 46
SWIDTH 600 0
DWIDTH 11 0
BBX 2 2 4 0
BITMAP
c0
c0
ENDCHAR
STARTCHAR slash
ENCODING 47
SWIDTH 600 0
DWIDTH 11 0
BBX 7 14 3 -2
BITMAP
02
02
04
04
08
08
10
10
20
20
40
40
80
80
ENDCHAR
STARTCHAR zero
ENCODING 48
SWIDTH 600 0
DWIDTH 11 0
BBX 7 12 3 0
BITMAP
1c
22
42
42
82
82
82
82
84
84
88
70
ENDCHAR
STARTCHAR one
ENCODING 49
SWIDTH 600 0
DWIDTH 11 0
BBX 7 12 2 0
BITMAP
04
3c
04
04
08
08
08
08
10
10
10
fe
ENDCHAR
STARTCHAR two
ENCODING 50
SWIDTH 600 0
DWIDTH 11 0
BBX 9 12 1 0
BITMAP
0f00
1080
2080
0080
0080
0100
0600
0800
1000
2000
4200
fe00
ENDCHAR
STARTCHAR three
ENCODING 51
SWIDTH 600 0
DWIDTH 11 0
BBX 8 12 2 0
BITMAP
1e
21
01
01
02
0c
02
01
01
02
86
78
ENDCHAR
STARTCHAR four
ENCODING 52
SWIDTH 600 0
DWIDTH 11 0
BBX 7 12 2 0
BITMAP
06
0a
12
12
24
44
44
84
fe
08
08
3c
ENDCHAR
STARTCHAR five
ENCODING 53
SWIDTH 600 0
DWIDTH 11 0
BBX 8 12 2 0
BITMAP
3f
20
20
40
5c
62
01
01
01
02
86
78
ENDCHAR
STARTCHAR six
ENCODING 54
SWIDTH 600 0
DWIDTH 11 0
BBX 8 12 3 0
BITMAP
0f
30
20
40
40
9c
a2
c2
82
82
84
78
ENDCHAR
STARTCHAR seven
ENCODING 55
SWIDTH 600 0
DWIDTH 11 0
BBX 7 12 4 0
BITMAP
fe
82
04
08
08
10
10
20
20
40
40
80
ENDCHAR
STARTCHAR eight
ENCODING 56
SWIDTH 600 0
DWIDTH 11 0
BBX 7 12 3 0
BITMAP
1c
22
42
42
44
38
44
84
84
84
88
70
ENDCHAR
STARTCHAR nine
ENCODING 57
SWIDTH 600 0
DWIDTH 11 0
BBX 8 12 2 0
BITMAP
0e
11
21
21
21
23
1d
02
02
04
18
e0
ENDCHAR
STARTCHAR colon
ENCODING 58
SWIDTH 600 0
DWIDTH 11 0
BBX 3 8 5 0
BITMAP
60
60
00
00
00
00
c0
c0
ENDCHAR
STARTCHAR semicolon
ENCODING 59
SWIDTH 600 0
DWIDTH 11 0
BBX 5 10 3 -2
BITMAP
18
18
00
00
00
30
70
60
c0
80
ENDCHAR
STARTCHAR less
ENCODING 60
SWIDTH 600 0
DWIDTH 11 0
BBX 11 8 1 2
BITMAP
00e0
0380
0e00
3800
e000
3800
0e00
0380
ENDCHAR
STARTCHAR equal
ENCODING 61
SWIDTH 600 0
DWIDTH 11 0
BBX 10 4 1 3
BITMAP
7fc0
0000
0000
ff80
ENDCHAR
STARTCHAR greater
ENCODING 62
SWIDTH 600 0
DWIDTH 11 0
BBX 11 8 0 2
BITMAP
3800
0e00
0380
00e0
0380
0e00
3800
e000
ENDCHAR
STARTCHAR question
ENCODING 63
SWIDTH 600 0
DWIDTH 11 0
BBX 6 11 4 0
BITMAP
78
cc
84
04
08
30
40
40
00
c0
c0
ENDCHAR
STARTCHAR at
ENCODING 64
SWIDTH 600 0
DWIDTH 11 0
BBX 8 12 3 0
BITMAP
0e
31
21
42
4e
92
a4
a4
9e
80
84
78
ENDCHAR
STARTCHAR A
ENCODING 65
SWIDTH 600 0
DWIDTH 11 0
BBX 11 11 0 0
BITMAP
0f00
0300
0500
0500
0880
0880
1080
1f80
2040
2040
f1e0
ENDCHAR
STARTCHAR B
ENCODING 66
SWIDTH 600 0
DWIDTH 11 0
BBX 9 11 1 0
BITMAP
3f00
1080
1080
2080
2100
3e00
2100
4080
4080
4100
fe00
ENDCHAR
STARTCHAR C
ENCODING 67
SWIDTH 600 0
DWIDTH 11 0
BBX 10 11 1 0
BITMAP
0f40
3180
6080
4000
8000
8000
8000
8000
4180
6300
3c00
ENDCHAR
STARTCHAR D
ENCODING 68
SWIDTH 600 0
DWIDTH 11 0
BBX 10 11 1 0
BITMAP
3f00
1080
1040
2040
2040
2040
2040
4080
4080
4100
fe00
ENDCHAR
STARTCHAR E
ENCODING 69
SWIDTH 600 0
DWIDTH 11 0
BBX 10 11 1 0
BITMAP
3fc0
1040
1080
2080
2400
3c00
2400
4080
4080
4100
ff00
ENDCHAR
STARTCHAR F
ENCODING 70
SWIDTH 600 0
DWIDTH 11 0
BBX 10 11 1 0
BITMAP
3fc0
1040
1080
2080
2400
3c00
2400
4000
4000
4000
f800
ENDCHAR
STARTCHAR G
ENCODING 71
SWIDTH 600 0
DWIDTH 11 0
BBX 10 11 1 0
BITMAP
0f40
3180
6080
4000
8000
8000
87c0
8080
4080
6100
3e00
ENDCHAR
STARTCHAR H
ENCODING 72
SWIDTH 600 0
DWIDTH 11 0
BBX 11 11 1 0
BITMAP
38e0
1040
1040
2080
2080
3f80
2080
4100
4100
4100
e380
ENDCHAR
STARTCHAR I
ENCODING 73
SWIDTH 600 0
DWIDTH 11 0
BBX 9 11 2 0
BITMAP
3f80
0400
0400
0400
0800
0800
0800
1000
1000
1000
fe00
ENDCHAR
STARTCHAR J
ENCODING 74
SWIDTH 600 0
DWIDTH 11 0
BBX 11 11 1 0
BITMAP
07e0
0080
0080
0080
0100
0100
4100
4200
8200
8600
7800
ENDCHAR
STARTCHAR K
ENCODING 75
SWIDTH 600 0
DWIDTH 11 0
BBX 11 11 1 0
BITMAP
3de0
1080
1100
1200
2400
2c00
3200
2200
4100
4100
f180
ENDCHAR
STARTCHAR L
ENCODING 76
SWIDTH 600 0
DWIDTH 11 0
BBX 9 11 1 0
BITMAP
3e00
0800
0800
0800
1000
1000
1000
2080
2080
2100
ff00
ENDCHAR
STARTCHAR M
ENCODING 77
SWIDTH 600 0
DWIDTH 11 0
BBX 12 11 0 0
BITMAP
3870
1860
18a0
2940
2940
2640
2440
4080
4080
4080
f3c0
ENDCHAR
STARTCHAR N
ENCODING 78
SWIDTH 600 0
DWIDTH 11 0
BBX 11 11 1 0
BITMAP
39e0
1840
1840
2440
2480
2480
2280
4280
4100
4100
f100
ENDCHAR
STARTCHAR O
ENCODING 79
SWIDTH 600 0
DWIDTH 11 0
BBX 10 11 1 0
BITMAP
0f00
3180
6080
4040
8040
8040
8040
8080
4180
6300
3c00
ENDCHAR
STARTCHAR P
ENCODING 80
SWIDTH 600 0
DWIDTH 11 0
BBX 10 11 1 0
BITMAP
3f80
1040
1040
1040
2080
2180
3e00
4000
4000
4000
f800
ENDCHAR
STARTCHAR Q
ENCODING 81
SWIDTH 600 0
DWIDTH 11 0
BBX 10 13 1 -2
BITMAP
0f00
3180
6080
4040
8040
8040
8040
8080
4180
6300
3c00
3880
6700
ENDCHAR
STARTCHAR R
ENCODING 82
SWIDTH 600 0
DWIDTH 11 0
BBX 10 11 1 0
BITMAP
3f00
1080
1080
2080
2100
3e00
2200
4100
4100
4080
f0c0
ENDCHAR
STARTCHAR S
ENCODING 83
SWIDTH 600 0
DWIDTH 11 0
BBX 10 11 1 0
BITMAP
0f40
1180
2080
2000
1000
0f00
0080
0080
4080
6100
be00
ENDCHAR
STARTCHAR T
ENCODING 84
SWIDTH 600 0
DWIDTH 11 0
BBX 11 11 2 0
BITMAP
7fe0
4420
8440
8440
0800
0800
0800
1000
1000
1000
7c00
ENDCHAR
STARTCHAR U
ENCODING 85
SWIDTH 600 0
DWIDTH 11 0
BBX 10 11 2 0
BITMAP
71c0
2080
2080
4100
4100
4100
8200
8200
8200
8400
7800
ENDCHAR
STARTCHAR V
ENCODING 86
SWIDTH 600 0
DWIDTH 11 0
BBX 11 11 2 0
BITMAP
f3e0
4040
4080
2080
2100
2100
2200
2200
1400
1800
1800
ENDCHAR
STARTCHAR W
ENCODING 87
SWIDTH 600 0
DWIDTH 11 0
BBX 12 11 1 0
BITMAP
f070
4020
4620
4640
4a40
4a80
5280
5280
6300
6300
4200
ENDCHAR
STARTCHAR X
ENCODING 88
SWIDTH 600 0
DWIDTH 11 0
BBX 11 11 1 0
BITMAP
38e0
1040
1080
0900
0a00
0400
0a00
1200
2100
4100
e380
ENDCHAR
STARTCHAR Y
ENCODING 89
SWIDTH 600 0
DWIDTH 11 0
BBX 9 11 3 0
BITMAP
e380
4100
4200
2400
2400
1800
1000
1000
2000
2000
f800
ENDCHAR
STARTCHAR Z
ENCODING 90
SWIDTH 600 0
DWIDTH 11 0
BBX 9 11 2 0
BITMAP
3f80
2080
4100
4200
0400
0800
1000
2100
4100
8200
fe00
ENDCHAR
STARTCHAR bracketleft
ENCODING 91
SWIDTH 600 0
DWIDTH 11 0
BBX 6 14 4 -2
BITMAP
1c
10
10
10
20
20
20
40
40
40
80
80
80
e0
ENDCHAR
STARTCHAR backslash
ENCODING 92
SWIDTH 600 0
DWIDTH 11 0
BBX 7 14 3 -2
BITMAP
80
80
40
40
20
20
10
10
08
08
04
04
02
02
ENDCHAR
STARTCHAR bracketright
ENCODING 93
SWIDTH 600 0
DWIDTH 11 0
BBX 6 14 2 -2
BITMAP
1c
04
04
04
08
08
08
10
10
10
20
20
20
e0
ENDCHAR
STARTCHAR asciicircum
ENCODING 94
SWIDTH 600 0
DWIDTH 11 0
BBX 7 5 3 7
BITMAP
0c
14
22
42
82
ENDCHAR
STARTCHAR underscore
ENCODING 95
SWIDTH 600 0
DWIDTH 11 0
BBX 11 1 0 -3
BITMAP
ffe0
ENDCHAR
STARTCHAR grave
ENCODING 96
SWIDTH 600 0
DWIDTH 11 0
BBX 4 3 5 9
BITMAP
c0
60
30
ENDCHAR
STARTCHAR a
ENCODING 97
SWIDTH 600 0
DWIDTH 11 0
BBX 9 8 1 0
BITMAP
1f00
2080
0080
1f00
6100
8100
8300
7d80
ENDCHAR
STARTCHAR b
ENCODING 98
SWIDTH 600 0
DWIDTH 11 0
BBX 9 12 1 0
BITMAP
3000
1000
1000
1000
2700
2880
3080
2080
4080
4100
6300
dc00
ENDCHAR
STARTCHAR c
ENCODING 99
SWIDTH 600 0
DWIDTH 11 0
BBX 9 8 1 0
BITMAP
1e80
6180
4080
8000
8000
8100
4300
3c00
ENDCHAR
STARTCHAR d
ENCODING 100
SWIDTH 600 0
DWIDTH 11 0
BBX 9 12 1 0
BITMAP
0180
0080
0080
0100
1d00
6300
4100
8100
8200
8200
4600
3b80
ENDCHAR
STARTCHAR e
ENCODING 101
SWIDTH 600 0
DWIDTH 11 0
BBX 9 8 1 0
BITMAP
1e00
6100
4080
ff80
8000
8000
4300
3c00
ENDCHAR
STARTCHAR f
ENCODING 102
SWIDTH 600 0
DWIDTH 11 0
BBX 10 12 2 0
BITMAP
07c0
0800
0800
0800
7f00
1000
1000
1000
2000
2000
2000
fe00
ENDCHAR
STARTCHAR g
ENCODING 103
SWIDTH 600 0
DWIDTH 11 0
BBX 10 12 1 -4
BITMAP
1dc0
6300
4100
8100
8200
8200
4600
3a00
0200
0400
0c00
f000
ENDCHAR
STARTCHAR h
ENCODING 104
SWIDTH 600 0
DWIDTH 11 0
BBX 9 12 1 0
BITMAP
3000
1000
1000
1000
2700
2880
3080
2080
4100
4100
4100
e380
ENDCHAR
STARTCHAR i
ENCODING 105
SWIDTH 600 0
DWIDTH 11 0
BBX 7 12 2 0
BITMAP
04
04
00
00
38
08
08
08
10
10
10
fe
ENDCHAR
STARTCHAR j
ENCODING 106
SWIDTH 600 0
DWIDTH 11 0
BBX 7 16 2 -4
BITMAP
02
02
00
00
3e
02
02
02
02
04
04
04
04
04
08
f0
ENDCHAR
STARTCHAR k
ENCODING 107
SWIDTH 600 0
DWIDTH 11 0
BBX 9 12 1 0
BITMAP
3000
1000
1000
1000
2700
2400
2800
3000
4800
4400
4200
c780
ENDCHAR
STARTCHAR l
ENCODING 108
SWIDTH 600 0
DWIDTH 11 0
BBX 7 12 2 0
BITMAP
1c
04
04
04
08
08
08
08
10
10
10
fe
ENDCHAR
STARTCHAR m
ENCODING 109
SWIDTH 600 0
DWIDTH 11 0
BBX 11 8 0 0
BITMAP
6cc0
3320
2220
2220
2220
4440
4440
e660
ENDCHAR
STARTCHAR n
ENCODING 110
SWIDTH 600 0
DWIDTH 11 0
BBX 9 8 1 0
BITMAP
6700
2880
3080
2080
4100
4100
4100
e380
ENDCHAR
STARTCHAR o
ENCODING 111
SWIDTH 600 0
DWIDTH 11 0
BBX 9 8 1 0
BITMAP
1e00
6100
4080
8080
8080
8100
4300
3c00
ENDCHAR
STARTCHAR p
ENCODING 112
SWIDTH 600 0
DWIDTH 11 0
BBX 10 12 0 -4
BITMAP
3380
1440
1840
1040
2040
2080
3180
2e00
4000
4000
4000
e000
ENDCHAR
STARTCHAR q
ENCODING 113
SWIDTH 600 0
DWIDTH 11 0
BBX 10 12 1 -4
BITMAP
1dc0
6300
4100
8100
8200
8200
8600
7a00
0400
0400
0400
1f00
ENDCHAR
STARTCHAR r
ENCODING 114
SWIDTH 600 0
DWIDTH 11 0
BBX 9 8 2 0
BITMAP
3300
1480
1800
1000
1000
2000
2000
fc00
ENDCHAR
STARTCHAR s
ENCODING 115
SWIDTH 600 0
DWIDTH 11 0
BBX 8 8 2 0
BITMAP
1d
23
21
18
04
82
c2
bc
ENDCHAR
STARTCHAR t
ENCODING 116
SWIDTH 600 0
DWIDTH 11 0
BBX 8 11 2 0
BITMAP
10
10
10
fe
20
20
40
40
40
43
3c
ENDCHAR
STARTCHAR u
ENCODING 117
SWIDTH 600 0
DWIDTH 11 0
BBX 8 8 2 0
BITMAP
c3
41
41
82
82
86
8a
73
ENDCHAR
STARTCHAR v
ENCODING 118
SWIDTH 600 0
DWIDTH 11 0
BBX 10 8 1 0
BITMAP
f3c0
4100
4200
2200
2400
2400
1800
1800
ENDCHAR
STARTCHAR w
ENCODING 119
SWIDTH 600 0
DWIDTH 11 0
BBX 10 8 1 0
BITMAP
e1c0
4080
4880
4900
5900
6600
6600
4400
ENDCHAR
STARTCHAR x
ENCODING 120
SWIDTH 600 0
DWIDTH 11 0
BBX 10 8 1 0
BITMAP
39c0
1080
0900
0600
0c00
1200
2100
f380
ENDCHAR
STARTCHAR y
ENCODING 121
SWIDTH 600 0
DWIDTH 11 0
BBX 11 12 0 -4
BITMAP
38e0
1040
1080
0880
0900
0600
0600
0400
0800
0800
1000
fc00
ENDCHAR
STARTCHAR z
ENCODING 122
SWIDTH 600 0
DWIDTH 11 0
BBX 8 8 2 0
BITMAP
7f
82
84
08
10
21
41
fe
ENDCHAR
STARTCHAR braceleft
ENCODING 123
SWIDTH 600 0
DWIDTH 11 0
BBX 6 14 4 -2
BITMAP
0c
10
10
20
20
20
c0
20
20
40
40
40
40
30
ENDCHAR
STARTCHAR bar
ENCODING 124
SWIDTH 600 0
DWIDTH 11 0
BBX 3 14 5 -2
BITMAP
20
20
20
20
40
40
40
40
40
80
80
80
80
80
ENDCHAR
STARTCHAR braceright
ENCODING 125
SWIDTH 600 0
DWIDTH 11 0
BBX 6 14 3 -2
BITMAP
30
08
08
08
08
10
10
0c
10
10
10
20
20
c0
ENDCHAR
STARTCHAR asciitilde
ENCODING 126
SWIDTH 600 0
DWIDTH 11 0
BBX 8 3 2 4
BITMAP
70
99
0e
ENDCHAR
STARTCHAR nobreakspace
ENCODING 160
SWIDTH 600 0
DWIDTH 11 0
BBX 1 1 0 0
BITMAP
00
ENDCHAR
STARTCHAR Aogonek
ENCODING 161
SWIDTH 600 0
DWIDTH 11 0
BBX 11 15 0 -4
BITMAP
0f00
0300
0500
0500
0880
0880
1080
1f80
2040
2040
f1e0
0400
0800
0800
0600
ENDCHAR
STARTCHAR breve
ENCODING 162
SWIDTH 600 0
DWIDTH 11 0
BBX 5 3 5 9
BITMAP
88
88
70
ENDCHAR
STARTCHAR Lstroke
ENCODING 163
SWIDTH 600 0
DWIDTH 11 0
BBX 9 11 1 0
BITMAP
3e00
0800
0800
0b00
1c00
3000
d000
2080
2080
2100
ff00
ENDCHAR
STARTCHAR currency
ENCODING 164
SWIDTH 600 0
DWIDTH 11 0
BBX 9 7 2 2
BITMAP
6180
3f00
2100
4100
4200
7e00
c300
ENDCHAR
STARTCHAR Lcaron
ENCODING 165
SWIDTH 693 0
DWIDTH 13 0
BBX 11 12 1 0
BITMAP
0060
3e60
08c0
08c0
0880
1000
1000
1000
2080
2080
2100
ff00
ENDCHAR
STARTCHAR Sacute
ENCODING 166
SWIDTH 600 0
DWIDTH 11 0
BBX 10 15 1 0
BITMAP
0080
0100
0200
0000
0f40
1180
2080
2000
1000
0f00
0080
0080
4080
6100
be00
ENDCHAR
STARTCHAR section
ENCODING 167
SWIDTH 600 0
DWIDTH 11 0
BBX 9 13 1 -1
BITMAP
0f80
1080
1080
3800
4400
4200
2100
1080
0880
0700
8400
8400
f800
ENDCHAR
STARTCHAR diaeresis
ENCODING 168
SWIDTH 600 0
DWIDTH 11 0
BBX 5 1 5 10
BITMAP
d8
ENDCHAR
STARTCHAR Scaron
ENCODING 169
SWIDTH 600 0
DWIDTH 11 0
BBX 10 15 1 0
BITMAP
0240
0280
0300
0000
0f40
1180
2080
2000
1000
0f00
0080
0080
4080
6100
be00
ENDCHAR
STARTCHAR Scedilla
ENCODING 170
SWIDTH 600 0
DWIDTH 11 0
BBX 10 14 1 -3
BITMAP
0f40
1180
2080
2000
1000
0f00
0080
0080
4080
6100
be00
0400
0200
1c00
ENDCHAR
STARTCHAR Tcaron
ENCODING 171
SWIDTH 600 0
DWIDTH 11 0
BBX 11 15 2 0
BITMAP
0240
0280
0300
0000
7fe0
4420
8440
8440
0800
0800
0800
1000
1000
1000
7c00
ENDCHAR
STARTCHAR Zacute
ENCODING 172
SWIDTH 600 0
DWIDTH 11 0
BBX 9 15 2 0
BITMAP
0100
0200
0400
0000
3f80
2080
4100
4200
0400
0800
1000
2100
4100
8200
fe00
ENDCHAR
STARTCHAR hyphen
ENCODING 173
SWIDTH 600 0
DWIDTH 11 0
BBX 8 1 2 5
BITMAP
ff
ENDCHAR
STARTCHAR Zcaron
ENCODING 174
SWIDTH 600 0
DWIDTH 11 0
BBX 9 15 2 0
BITMAP
0480
0500
0600
0000
3f80
2080
4100
4200
0400
0800
1000
2100
4100
8200
fe00
ENDCHAR
STARTCHAR Zabovedot
ENCODING 175
SWIDTH 600 0
DWIDTH 11 0
BBX 9 14 2 0
BITMAP
0600
0600
0000
3f80
2080
4100
4200
0400
0800
1000
2100
4100
8200
fe00
ENDCHAR
STARTCHAR degree
ENCODING 176
SWIDTH 600 0
DWIDTH 11 0
BBX 6 6 3 6
BITMAP
38
44
84
84
88
70
ENDCHAR
STARTCHAR aogonek
ENCODING 177
SWIDTH 600 0
DWIDTH 11 0
BBX 9 12 1 -4
BITMAP
1f00
2080
0080
1f00
6100
8100
8300
7d80
0800
1000
1000
0c00
ENDCHAR
STARTCHAR ogonek
ENCODING 178
SWIDTH 600 0
DWIDTH 11 0
BBX 3 4 4 -4
BITMAP
40
80
80
60
ENDCHAR
STARTCHAR lstroke
ENCODING 179
SWIDTH 600 0
DWIDTH 11 0
BBX 8 12 2 0
BITMAP
1c
04
04
04
0b
0e
38
68
10
10
10
fe
ENDCHAR
STARTCHAR acute
ENCODING 180
SWIDTH 600 0
DWIDTH 11 0
BBX 3 3 7 9
BITMAP
20
40
80
ENDCHAR
STARTCHAR lcaron
ENCODING 181
SWIDTH 746 0
DWIDTH 14 0
BBX 10 13 2 0
BITMAP
00c0
1cc0
0580
0580
0500
0800
0800
0800
0800
1000
1000
1000
fe00
ENDCHAR
STARTCHAR sacute
ENCODING 182
SWIDTH 600 0
DWIDTH 11 0
BBX 8 12 2 0
BITMAP
02
04
08
00
1d
23
21
18
04
82
c2
bc
ENDCHAR
STARTCHAR caron
ENCODING 183
SWIDTH 600 0
DWIDTH 11 0
BBX 4 3 6 9
BITMAP
90
a0
c0
ENDCHAR
STARTCHAR cedilla
ENCODING 184
SWIDTH 600 0
DWIDTH 11 0
BBX 4 3 4 -3
BITMAP
20
10
e0
ENDCHAR
STARTCHAR scaron
ENCODING 185
SWIDTH 600 0
DWIDTH 11 0
BBX 8 12 2 0
BITMAP
09
0a
0c
00
1d
23
21
18
04
82
c2
bc
ENDCHAR
STARTCHAR scedilla
ENCODING 186
SWIDTH 600 0
DWIDTH 11 0
BBX 8 11 2 -3
BITMAP
1d
23
21
18
04
82
c2
bc
08
04
38
ENDCHAR
STARTCHAR tcaron
ENCODING 187
SWIDTH 600 0
DWIDTH 11 0
BBX 8 14 2 0
BITMAP
03
03
06
16
14
10
fe
20
20
40
40
40
43
3c
ENDCHAR
STARTCHAR zacute
ENCODING 188
SWIDTH 600 0
DWIDTH 11 0
BBX 8 12 2 0
BITMAP
04
08
10
00
7f
82
84
08
10
21
41
fe
ENDCHAR
STARTCHAR doubleacute
ENCODING 189
SWIDTH 600 0
DWIDTH 11 0
BBX 6 3 4 9
BITMAP
24
48
90
ENDCHAR
STARTCHAR zcaron
ENCODING 190
SWIDTH 600 0
DWIDTH 11 0
BBX 8 12 2 0
BITMAP
12
14
18
00
7f
82
84
08
10
21
41
fe
ENDCHAR
STARTCHAR zabovedot
ENCODING 191
SWIDTH 600 0
DWIDTH 11 0
BBX 8 11 2 0
BITMAP
18
18
00
7f
82
84
08
10
21
41
fe
ENDCHAR
STARTCHAR Racute
ENCODING 192
SWIDTH 600 0
DWIDTH 11 0
BBX 10 15 1 0
BITMAP
0100
0200
0400
0000
3f00
1080
1080
2080
2100
3e00
2200
4100
4100
4080
f0c0
ENDCHAR
STARTCHAR Aacute
ENCODING 193
SWIDTH 600 0
DWIDTH 11 0
BBX 11 15 0 0
BITMAP
0080
0100
0200
0000
0f00
0300
0500
0500
0880
0880
1f80
1080
2040
2040
f1e0
ENDCHAR
STARTCHAR Acircumflex
ENCODING 194
SWIDTH 600 0
DWIDTH 11 0
BBX 11 15 0 0
BITMAP
0180
0280
0480
0000
0f00
0300
0500
0500
0880
0880
1f80
1080
2040
2040
f1e0
ENDCHAR
STARTCHAR Abreve
ENCODING 195
SWIDTH 600 0
DWIDTH 11 0
BBX 11 15 0 0
BITMAP
0880
0880
0700
0000
0f00
0300
0500
0500
0880
0880
1080
1f80
2040
2040
f1e0
ENDCHAR
STARTCHAR Adiaeresis
ENCODING 196
SWIDTH 600 0
DWIDTH 11 0
BBX 11 14 0 0
BITMAP
0d80
0000
0000
0f00
0300
0500
0500
0880
0880
1f80
1080
2040
2040
f1e0
ENDCHAR
STARTCHAR Lacute
ENCODING 197
SWIDTH 600 0
DWIDTH 11 0
BBX 9 15 1 0
BITMAP
0200
0400
0800
0000
3e00
0800
0800
0800
1000
1000
1000
2080
2080
2100
ff00
ENDCHAR
STARTCHAR Cacute
ENCODING 198
SWIDTH 600 0
DWIDTH 11 0
BBX 10 15 1 0
BITMAP
0080
0100
0200
0000
0f40
3180
6080
4000
8000
8000
8000
8000
4180
6300
3c00
ENDCHAR
STARTCHAR Ccedilla
ENCODING 199
SWIDTH 600 0
DWIDTH 11 0
BBX 10 14 1 -3
BITMAP
0f40
3180
6080
4000
8000
8000
8000
8000
4180
6300
3c00
1000
0800
7000
ENDCHAR
STARTCHAR Ccaron
ENCODING 200
SWIDTH 600 0
DWIDTH 11 0
BBX 10 15 1 0
BITMAP
0240
0280
0300
0000
0f40
3180
6080
4000
8000
8000
8000
8000
4180
6300
3c00
ENDCHAR
STARTCHAR Eacute
ENCODING 201
SWIDTH 600 0
DWIDTH 11 0
BBX 10 15 1 0
BITMAP
0100
0200
0400
0000
3fc0
1040
1080
2080
2400
3c00
2400
4080
4080
4100
ff00
ENDCHAR
STARTCHAR Eogonek
ENCODING 202
SWIDTH 600 0
DWIDTH 11 0
BBX 10 15 1 -4
BITMAP
3fc0
1040
1080
2080
2400
3c00
2400
4080
4080
4100
ff00
0800
1000
1000
0c00
ENDCHAR
STARTCHAR Ediaeresis
ENCODING 203
SWIDTH 600 0
DWIDTH 11 0
BBX 10 14 1 0
BITMAP
0d80
0000
0000
3fc0
1040
1080
2080
2400
3c00
2400
4080
4080
4100
ff00
ENDCHAR
STARTCHAR Ecaron
ENCODING 204
SWIDTH 600 0
DWIDTH 11 0
BBX 10 15 1 0
BITMAP
0240
0280
0300
0000
3fc0
1040
1080
2080
2400
3c00
2400
4080
4080
4100
ff00
ENDCHAR
STARTCHAR Iacute
ENCODING 205
SWIDTH 600 0
DWIDTH 11 0
BBX 9 15 2 0
BITMAP
0100
0200
0400
0000
3f80
0400
0400
0800
0800
0800
0800
1000
1000
1000
fe00
ENDCHAR
STARTCHAR Icircumflex
ENCODING 206
SWIDTH 600 0
DWIDTH 11 0
BBX 9 15 2 0
BITMAP
0300
0500
0900
0000
3f80
0400
0400
0800
0800
0800
0800
1000
1000
1000
fe00
ENDCHAR
STARTCHAR Dcaron
ENCODING 207
SWIDTH 600 0
DWIDTH 11 0
BBX 10 15 1 0
BITMAP
0480
0500
0600
0000
3f00
1080
1040
2040
2040
2040
2040
4080
4080
4100
fe00
ENDCHAR
STARTCHAR Dstroke
ENCODING 208
SWIDTH 600 0
DWIDTH 11 0
BBX 10 11 1 0
BITMAP
3f00
1080
1040
2040
2040
7840
2040
4080
4080
4100
fe00
ENDCHAR
STARTCHAR Nacute
ENCODING 209
SWIDTH 600 0
DWIDTH 11 0
BBX 11 15 1 0
BITMAP
0080
0100
0200
0000
39e0
1840
1840
2440
2480
2480
2280
4280
4100
4100
f100
ENDCHAR
STARTCHAR Ncaron
ENCODING 210
SWIDTH 600 0
DWIDTH 11 0
BBX 11 15 1 0
BITMAP
0240
0280
0300
0000
39e0
1840
1840
2440
2480
2480
2280
4280
4100
4100
f100
ENDCHAR
STARTCHAR Oacute
ENCODING 211
SWIDTH 600 0
DWIDTH 11 0
BBX 10 15 1 0
BITMAP
0100
0200
0400
0000
0f00
3180
6080
4040
8040
8040
8040
8080
4180
6300
3c00
ENDCHAR
STARTCHAR Ocircumflex
ENCODING 212
SWIDTH 600 0
DWIDTH 11 0
BBX 10 15 1 0
BITMAP
0300
0500
0900
0000
0f00
3180
6080
4040
8040
8040
8040
8080
4180
6300
3c00
ENDCHAR
STARTCHAR Odoubleacute
ENCODING 213
SWIDTH 600 0
DWIDTH 11 0
BBX 10 15 1 0
BITMAP
0240
0480
0900
0000
0f00
3180
6080
4040
8040
8040
8040
8080
4180
6300
3c00
ENDCHAR
STARTCHAR Odiaeresis
ENCODING 214
SWIDTH 600 0
DWIDTH 11 0
BBX 10 14 1 0
BITMAP
0d80
0000
0000
0f00
3180
6080
4040
8040
8040
8040
8080
4180
6300
3c00
ENDCHAR
STARTCHAR multiply
ENCODING 215
SWIDTH 600 0
DWIDTH 11 0
BBX 9 8 1 1
BITMAP
4080
2100
1200
0c00
1800
2400
4200
8100
ENDCHAR
STARTCHAR Rcaron
ENCODING 216
SWIDTH 600 0
DWIDTH 11 0
BBX 10 15 1 0
BITMAP
0480
0500
0600
0000
3f00
1080
1080
2080
2100
3e00
2200
4100
4100
4080
f0c0
ENDCHAR
STARTCHAR Uring
ENCODING 217
SWIDTH 600 0
DWIDTH 11 0
BBX 10 15 2 0
BITMAP
0700
0900
0e00
0000
71c0
2080
2080
4100
4100
4100
8200
8200
8200
8400
7800
ENDCHAR
STARTCHAR Uacute
ENCODING 218
SWIDTH 600 0
DWIDTH 11 0
BBX 10 15 2 0
BITMAP
0100
0200
0400
0000
71c0
2080
2080
4100
4100
4100
8200
8200
8200
8400
7800
ENDCHAR
STARTCHAR Udoubleacute
ENCODING 219
SWIDTH 600 0
DWIDTH 11 0
BBX 10 15 2 0
BITMAP
0240
0480
0900
0000
71c0
2080
2080
4100
4100
4100
8200
8200
8200
8400
7800
ENDCHAR
STARTCHAR Udiaeresis
ENCODING 220
SWIDTH 600 0
DWIDTH 11 0
BBX 10 14 2 0
BITMAP
0d80
0000
0000
71c0
2080
2080
4100
4100
4100
8200
8200
8200
8400
7800
ENDCHAR
STARTCHAR Yacute
ENCODING 221
SWIDTH 600 0
DWIDTH 11 0
BBX 9 15 3 0
BITMAP
0200
0400
0800
0000
e380
4100
4200
2400
2800
1000
1000
1000
2000
2000
f800
ENDCHAR
STARTCHAR Tcedilla
ENCODING 222
SWIDTH 600 0
DWIDTH 11 0
BBX 11 14 2 -3
BITMAP
7fe0
4420
8440
8440
0800
0800
0800
1000
1000
1000
7c00
0200
0100
0e00
ENDCHAR
STARTCHAR ssharp
ENCODING 223
SWIDTH 600 0
DWIDTH 11 0
BBX 9 12 2 0
BITMAP
0700
0880
1080
1080
2100
2600
2100
2100
4100
4100
5200
cc00
ENDCHAR
STARTCHAR racute
ENCODING 224
SWIDTH 600 0
DWIDTH 11 0
BBX 9 12 2 0
BITMAP
0100
0200
0400
0000
3300
1480
1800
1000
1000
2000
2000
fc00
ENDCHAR
STARTCHAR aacute
ENCODING 225
SWIDTH 600 0
DWIDTH 11 0
BBX 9 12 1 0
BITMAP
0100
0200
0400
0000
1f00
2080
0080
1f00
6100
8100
8300
7d80
ENDCHAR
STARTCHAR acircumflex
ENCODING 226
SWIDTH 600 0
DWIDTH 11 0
BBX 9 12 1 0
BITMAP
0300
0500
0900
0000
1f00
2080
0080
1f00
6100
8100
8300
7d80
ENDCHAR
STARTCHAR abreve
ENCODING 227
SWIDTH 600 0
DWIDTH 11 0
BBX 9 12 1 0
BITMAP
1100
1100
0e00
0000
1f00
2080
0080
1f00
6100
8100
8300
7d80
ENDCHAR
STARTCHAR adiaeresis
ENCODING 228
SWIDTH 600 0
DWIDTH 11 0
BBX 9 11 1 0
BITMAP
0d80
0000
0000
1f00
2080
0080
1f00
6100
8100
8300
7d80
ENDCHAR
STARTCHAR lacute
ENCODING 229
SWIDTH 600 0
DWIDTH 11 0
BBX 7 16 2 0
BITMAP
02
04
08
00
1c
04
04
04
08
08
08
08
10
10
10
fe
ENDCHAR
STARTCHAR cacute
ENCODING 230
SWIDTH 600 0
DWIDTH 11 0
BBX 9 12 1 0
BITMAP
0200
0400
0800
0000
1e80
6180
4080
8000
8000
8100
4300
3c00
ENDCHAR
STARTCHAR ccedilla
ENCODING 231
SWIDTH 600 0
DWIDTH 11 0
BBX 9 11 1 -3
BITMAP
1e80
6180
4080
8000
8000
8100
4300
3c00
1000
0800
7000
ENDCHAR
STARTCHAR ccaron
ENCODING 232
SWIDTH 600 0
DWIDTH 11 0
BBX 9 12 1 0
BITMAP
0900
0a00
0c00
0000
1e80
6180
4080
8000
8000
8100
4300
3c00
ENDCHAR
STARTCHAR eacute
ENCODING 233
SWIDTH 600 0
DWIDTH 11 0
BBX 9 12 1 0
BITMAP
0200
0400
0800
0000
1e00
6100
4080
ff80
8000
8000
4300
3c00
ENDCHAR
STARTCHAR eogonek
ENCODING 234
SWIDTH 600 0
DWIDTH 11 0
BBX 9 12 1 -4
BITMAP
1e00
6100
4080
ff80
8000
8000
4300
3c00
0800
1000
1000
0c00
ENDCHAR
STARTCHAR ediaeresis
ENCODING 235
SWIDTH 600 0
DWIDTH 11 0
BBX 9 11 1 0
BITMAP
1b00
0000
0000
1e00
6100
4080
ff80
8000
8000
4300
3c00
ENDCHAR
STARTCHAR ecaron
ENCODING 236
SWIDTH 600 0
DWIDTH 11 0
BBX 9 12 1 0
BITMAP
0900
0a00
0c00
0000
1e00
6100
4080
ff80
8000
8000
4300
3c00
ENDCHAR
STARTCHAR iacute
ENCODING 237
SWIDTH 600 0
DWIDTH 11 0
BBX 7 12 2 0
BITMAP
04
08
10
00
38
08
08
08
10
10
10
fe
ENDCHAR
STARTCHAR icircumflex
ENCODING 238
SWIDTH 600 0
DWIDTH 11 0
BBX 7 12 2 0
BITMAP
0c
14
22
00
38
08
08
08
10
10
10
fe
ENDCHAR
STARTCHAR dcaron
ENCODING 239
SWIDTH 800 0
DWIDTH 15 0
BBX 13 13 1 0
BITMAP
0018
0198
00b0
00b0
0120
1d00
6300
4100
8100
8200
8200
4600
3b80
ENDCHAR
STARTCHAR dstroke
ENCODING 240
SWIDTH 746 0
DWIDTH 14 0
BBX 12 12 1 0
BITMAP
0180
0080
0ff0
0100
1d00
6300
4100
8100
8200
8200
4600
3b80
ENDCHAR
STARTCHAR nacute
ENCODING 241
SWIDTH 600 0
DWIDTH 11 0
BBX 9 12 1 0
BITMAP
0200
0400
0800
0000
6700
2880
3080
2080
4100
4100
4100
e380
ENDCHAR
STARTCHAR ncaron
ENCODING 242
SWIDTH 600 0
DWIDTH 11 0
BBX 9 12 1 0
BITMAP
0900
0a00
0c00
0000
6700
2880
3080
2080
4100
4100
4100
e380
ENDCHAR
STARTCHAR oacute
ENCODING 243
SWIDTH 600 0
DWIDTH 11 0
BBX 9 12 1 0
BITMAP
0200
0400
0800
0000
1e00
6100
4080
8080
8080
8100
4300
3c00
ENDCHAR
STARTCHAR ocircumflex
ENCODING 244
SWIDTH 600 0
DWIDTH 11 0
BBX 9 12 1 0
BITMAP
0300
0500
0900
0000
1e00
6100
4080
8080
8080
8100
4300
3c00
ENDCHAR
STARTCHAR odoubleacute
ENCODING 245
SWIDTH 600 0
DWIDTH 11 0
BBX 9 12 1 0
BITMAP
0480
0900
1200
0000
1e00
6100
4080
8080
8080
8100
4300
3c00
ENDCHAR
STARTCHAR odiaeresis
ENCODING 246
SWIDTH 600 0
DWIDTH 11 0
BBX 9 11 1 0
BITMAP
1b00
0000
0000
1e00
6100
4080
8080
8080
8100
4300
3c00
ENDCHAR
STARTCHAR division
ENCODING 247
SWIDTH 600 0
DWIDTH 11 0
BBX 8 9 2 1
BITMAP
0c
0c
00
00
ff
00
00
30
30
ENDCHAR
STARTCHAR rcaron
ENCODING 248
SWIDTH 600 0
DWIDTH 11 0
BBX 9 12 2 0
BITMAP
0480
0500
0600
0000
3300
1480
1800
1000
1000
2000
2000
fc00
ENDCHAR
STARTCHAR uring
ENCODING 249
SWIDTH 600 0
DWIDTH 11 0
BBX 8 12 2 0
BITMAP
1c
24
38
00
c3
41
41
82
82
86
8a
73
ENDCHAR
STARTCHAR uacute
ENCODING 250
SWIDTH 600 0
DWIDTH 11 0
BBX 8 12 2 0
BITMAP
02
04
08
00
c3
41
41
82
82
86
8a
73
ENDCHAR
STARTCHAR udoubleacute
ENCODING 251
SWIDTH 600 0
DWIDTH 11 0
BBX 8 12 2 0
BITMAP
09
12
24
00
c3
41
41
82
82
86
8a
73
ENDCHAR
STARTCHAR udiaeresis
ENCODING 252
SWIDTH 600 0
DWIDTH 11 0
BBX 8 11 2 0
BITMAP
36
00
00
c3
41
41
82
82
86
8a
73
ENDCHAR
STARTCHAR yacute
ENCODING 253
SWIDTH 600 0
DWIDTH 11 0
BBX 11 16 0 -4
BITMAP
0080
0100
0200
0000
38e0
1040
1080
0880
0900
0600
0600
0400
0800
0800
1000
fc00
ENDCHAR
STARTCHAR tcedilla
ENCODING 254
SWIDTH 600 0
DWIDTH 11 0
BBX 8 14 2 -3
BITMAP
10
10
10
fe
20
20
40
40
40
43
3c
08
04
38
ENDCHAR
STARTCHAR abovedot
ENCODING 255
SWIDTH 600 0
DWIDTH 11 0
BBX 2 2 6 9
BITMAP
c0
c0
ENDCHAR
ENDFONT
